<?xml version="1.0" encoding="utf-8"?>
<!-- Generator: Adobe Illustrator 17.0.0, SVG Export Plug-In . SVG Version: 6.00 Build 0)  -->
<!DOCTYPE svg PUBLIC "-//W3C//DTD SVG 1.1//EN" "http://www.w3.org/Graphics/SVG/1.1/DTD/svg11.dtd">
<svg version="1.1" id="圖層_1" xmlns="http://www.w3.org/2000/svg" xmlns:xlink="http://www.w3.org/1999/xlink" x="0px" y="0px"
	 width="1980px" height="1080px" viewBox="0 0 1980 1080" enable-background="new 0 0 1980 1080" xml:space="preserve">
<g>
	<g>
		<path fill="#46B7D8" d="M552.12,399.858c-37.987,33.004-82.414,13.352-82.414,13.352l-3.255,78.301
			C466.451,491.51,590.103,366.857,552.12,399.858z"/>
		<path fill="#379BB8" d="M552.015,404.041c-37.983,33.004-82.41,13.351-82.41,13.351l-3.255,78.306
			C466.35,495.698,589.997,371.036,552.015,404.041z"/>
	</g>
	<g>
		<path fill="#46B7D8" d="M634.916,477.243c-30.367,40.123-7.761,83.123-7.761,83.123l-77.903,8.53
			C549.251,568.896,665.278,437.12,634.916,477.243z"/>
		<path fill="#379BB8" d="M630.749,477.631c-30.367,40.123-7.761,83.123-7.761,83.123l-77.903,8.534
			C545.084,569.288,661.115,437.508,630.749,477.631z"/>
	</g>
	<path fill="#546465" d="M569.816,552.195c-4.073,4.357-10.911,4.593-15.273,0.516l-72.037-67.331
		c-4.357-4.069-4.58-10.907-0.511-15.265l0,0c4.077-4.358,10.907-4.588,15.261-0.515l72.037,67.33
		C573.654,541.004,573.889,547.838,569.816,552.195L569.816,552.195z"/>
	<g>
		<path fill="#EAA646" d="M633.572,377.443c-3.584-4.055-6.746-8.192-9.442-12.305c-28.167,7.138-63.98,21.368-90.409,49.64
			l-52.71,56.395l25.126,23.485l52.71-56.395C584.37,410.96,612.221,390.759,633.572,377.443z"/>
		<path fill="#EEB94C" d="M625.884,491.953c0.638-0.746,1.272-1.5,1.89-2.261c1.429-1.768,2.802-3.546,4.14-5.355
			c0.588-0.797,1.184-1.606,1.755-2.422c0.681-0.93,1.321-1.857,1.952-2.805c0.594-0.874,1.163-1.759,1.743-2.648
			c0.557-0.877,1.142-1.77,1.686-2.667c0.553-0.897,1.097-1.789,1.633-2.697c0.574-0.958,1.116-1.919,1.663-2.876
			c0.469-0.841,0.95-1.699,1.402-2.56c0.278-0.503,0.541-0.989,0.804-1.476c0.437-0.84,0.874-1.681,1.306-2.525
			c1.735-3.388,3.331-6.809,4.806-10.225c0.317-0.788,0.655-1.56,0.977-2.343c0.443-1.026,0.869-2.064,1.264-3.065
			c0.336-0.837,0.652-1.657,0.952-2.488c1.093-2.845,2.106-5.671,3.047-8.49c0.524-1.62,1.032-3.223,1.529-4.806
			c0.324-1.067,0.633-2.117,0.929-3.151c0.265-0.899,0.53-1.802,0.767-2.7c0.751-2.684,1.438-5.329,2.07-7.96
			c0.383-1.595,0.727-3.16,1.08-4.701c0.643-2.98,1.226-5.852,1.722-8.676c-4.238-2.333-8.5-5.114-12.726-8.286
			c-11.834,22.2-30.147,51.429-55.697,78.765l-52.71,56.395l24.947,23.317l52.71-56.395
			C623.025,495.246,624.491,493.61,625.884,491.953z"/>
		<path fill="#EEAE43" d="M652.276,394.768c-3.45-2.591-6.884-5.445-10.223-8.564c-3.05-2.851-5.872-5.782-8.481-8.761
			c-21.351,13.316-49.202,33.517-74.725,60.82l-52.71,56.395l37.732,35.27l52.71-56.395
			C622.129,446.197,640.442,416.968,652.276,394.768z"/>
		<path fill="#379BB8" d="M668.64,358.168c0.2-0.076,0.311-0.128,0.375-0.159c-0.962,0.028-19.913,0.769-44.886,7.128
			c2.696,4.113,5.858,8.251,9.442,12.305C652.37,365.693,666.114,359.326,668.64,358.168z"/>
		<path fill="#4EC0E4" d="M665.001,403.053c0.452-2.427,0.85-4.767,1.185-7.072c0.135-0.793,0.258-1.579,0.349-2.354
			c0.311-2.046,0.568-4.029,0.807-5.955c0.168-1.373,0.317-2.701,0.444-3.992c0.701-6.558,1.038-12.149,1.177-16.427
			c0.03-0.446,0.035-0.892,0.037-1.312c0.121-3.714,0.103-6.287,0.083-7.359c-0.973,2.574-6.388,16.675-16.807,36.186
			C656.502,397.939,660.763,400.72,665.001,403.053z"/>
		<path fill="#D3E3E4" d="M669.073,358.154c-0.005-0.032-0.006-0.065-0.007-0.097c0.014-0.053-0.002-0.069-0.002-0.069
			s-0.019,0.017-0.048,0.022c-0.064,0.03-0.175,0.083-0.375,0.159C668.838,358.161,668.963,358.157,669.073,358.154z"/>
		<path fill="#D3E3E4" d="M669.216,358.197c-0.001-0.032,0.015-0.049,0.015-0.049s-0.017-0.02-0.065,0.002
			c-0.032,0.001-0.065,0.002-0.093,0.003c-0.001,0.101,0.003,0.227,0.01,0.428C669.141,358.378,669.186,358.259,669.216,358.197z"/>
		<path fill="#46B7D8" d="M633.572,377.443c2.609,2.979,5.431,5.91,8.481,8.761c3.338,3.12,6.773,5.974,10.223,8.564
			c10.419-19.511,15.834-33.612,16.807-36.186c-0.007-0.202-0.011-0.327-0.01-0.428c-0.109,0.004-0.234,0.008-0.432,0.015
			C666.114,359.326,652.37,365.693,633.572,377.443z"/>
	</g>
	<path fill="#DB7B33" d="M425.319,617.1c0,0,47.167-6.206,78.114-39.316l32.306-34.565L491.59,501.95l-32.31,34.565
		C428.333,569.63,425.319,617.1,425.319,617.1z"/>
	<path fill="#EAA646" d="M444.313,596.782c0,0,32.307-4.247,53.503-26.934l22.134-23.677l-30.249-28.268l-22.13,23.677
		C446.372,564.262,444.313,596.782,444.313,596.782z"/>
	<path fill="#F8DFA9" d="M466.025,573.544c0,0,20.713-2.723,34.302-17.266l14.191-15.183l-19.386-18.12l-14.191,15.179
		C467.353,552.698,466.025,573.544,466.025,573.544z"/>
	<path fill="#546465" d="M591.003,442.259c-11.276-10.54-11.872-28.291-1.336-39.567c10.54-11.273,28.286-11.876,39.566-1.336
		c11.273,10.54,11.876,28.294,1.336,39.567C620.034,452.199,602.279,452.798,591.003,442.259z M623.356,407.644
		c-7.809-7.299-20.103-6.883-27.397,0.925c-7.303,7.813-6.887,20.103,0.925,27.401c7.809,7.299,20.099,6.883,27.397-0.925
		S631.165,414.946,623.356,407.644z"/>
	<path fill="#D3E3E4" d="M625.852,436.514c-8.119,8.69-21.755,9.151-30.444,1.032c-8.686-8.123-9.143-21.759-1.024-30.445
		c8.127-8.69,21.755-9.15,30.441-1.028C633.515,414.191,633.979,427.823,625.852,436.514z"/>
	<path fill="#FFFFFF" d="M624.176,425.205c-2.683,2.87-7.189,3.022-10.063,0.336c-2.875-2.687-3.027-7.193-0.344-10.063
		c2.687-2.87,7.189-3.022,10.063-0.336C626.706,417.828,626.858,422.33,624.176,425.205z"/>
	<g>
		<path fill="#647476" d="M543.947,556.346c-3.726,3.986-9.973,4.217-13.979,0.472l-49.464-46.227
			c-3.982-3.726-4.19-9.994-0.464-13.976c1.858-1.997,4.372-3.04,6.89-3.142c2.538-0.086,5.097,0.803,7.085,2.666l49.459,46.228
			C547.482,546.112,547.677,552.361,543.947,556.346z"/>
		<path fill="#94A3A4" d="M543.947,556.346c-3.726,3.986-9.973,4.217-13.979,0.472l-33.963-31.744
			c-3.99-3.729-4.202-9.997-0.476-13.983c1.863-1.993,4.356-3.052,6.894-3.138c2.538-0.086,5.097,0.803,7.086,2.67l33.967,31.744
			C547.482,546.112,547.677,552.361,543.947,556.346z"/>
		<path fill="#849495" d="M528.455,541.866c-3.725,3.986-9.973,4.217-13.976,0.476l-18.475-17.268
			c-3.99-3.729-4.202-9.997-0.476-13.983c1.863-1.993,4.356-3.052,6.894-3.138c2.538-0.086,5.097,0.803,7.086,2.67l18.479,17.268
			C531.99,531.632,532.185,537.881,528.455,541.866z"/>
	</g>
	<g>
		<polygon fill="#46B7D8" points="569.702,487.506 481.481,557.477 545.341,464.735 577.677,454.556 		"/>
		<polygon fill="#379BB8" points="577.677,454.556 481.481,557.477 545.341,464.735 		"/>
	</g>
</g>
</svg>
